<svg xmlns="http://www.w3.org/2000/svg" version="1.1" xmlns:xlink="http://www.w3.org/1999/xlink" xmlns:svgjs="http://svgjs.dev/svgjs" width="1000" height="1000" viewBox="0 0 1000 1000"><rect width="1000" height="1000" fill="transparent"></rect><g transform="matrix(0.7,0,0,0.7,149.90044910179654,149.90044910179637)"><svg viewBox="0 0 334 334" data-background-color="transparent" preserveAspectRatio="xMidYMid meet" height="1000" width="1000" xmlns="http://www.w3.org/2000/svg" xmlns:xlink="http://www.w3.org/1999/xlink"><g id="tight-bounds" transform="matrix(1,0,0,1,0.04749999999998522,0.04750000000001364)"><svg viewBox="0 0 333.90454557049503 333.90454557049503" height="333.90454557049503" width="333.90454557049503"><g><svg></svg></g><g><svg viewBox="0 0 333.90454557049503 333.90454557049503" height="333.90454557049503" width="333.90454557049503"><g><path d="M0 166.952c0-92.205 74.747-166.952 166.952-166.952 92.205 0 166.952 74.747 166.953 166.952 0 92.205-74.747 166.952-166.953 166.953-92.205 0-166.952-74.747-166.952-166.953zM166.952 295.088c70.767 0 128.136-57.368 128.136-128.136 0-70.767-57.368-128.136-128.136-128.135-70.767 0-128.136 57.368-128.135 128.135 0 70.767 57.368 128.136 128.135 128.136z" data-fill-palette-color="tertiary" fill="#000000" stroke="transparent"></path><ellipse rx="160.27418187383762" ry="160.27418187383762" cx="166.95227278524752" cy="166.95227278524752" fill="#000000" stroke="transparent" stroke-width="0" fill-opacity="1" data-fill-palette-color="tertiary"></ellipse></g><g transform="matrix(1,0,0,1,72.19359673037059,71.17305217166896)"><svg viewBox="0 0 189.51735210975386 191.55844122715712" height="191.55844122715712" width="189.51735210975386"><g><svg viewBox="0 0 189.51735210975386 191.55844122715712" height="191.55844122715712" width="189.51735210975386"><g><svg viewBox="0 0 189.51735210975386 191.55844122715712" height="191.55844122715712" width="189.51735210975386"><g id="textblocktransform"><svg viewBox="0 0 189.51735210975386 191.55844122715712" height="191.55844122715712" width="189.51735210975386" id="textblock"><g><svg viewBox="0 0 189.51735210975386 191.55844122715712" height="191.55844122715712" width="189.51735210975386"><g transform="matrix(1,0,0,1,0,0)"><svg width="189.51735210975386" viewBox="18.00263023376465 -5.501692295074463 27.4910831451416 27.78713035583496" height="191.55844122715712" data-palette-color="#ffffff"><path d="M30.996 22.284v0c-0.273-0.01-0.512-0.132-0.717-0.366-0.205-0.228-0.379-0.491-0.522-0.789v0l-4.684-10.024-3.897-0.14-0.354 9.874c-0.012 0.34-0.168 0.588-0.467 0.743-0.292 0.156-0.619 0.228-0.979 0.215v0c-0.34-0.012-0.657-0.107-0.95-0.284-0.294-0.177-0.435-0.436-0.423-0.776v0l0.81-22.565c0.01-0.273 0.111-0.493 0.304-0.66 0.2-0.173 0.443-0.268 0.731-0.284v0l6.146 0.221c1.366 0.049 2.607 0.304 3.725 0.764 1.118 0.454 1.996 1.179 2.633 2.176 0.638 0.997 0.926 2.345 0.866 4.044v0c-0.049 1.366-0.31 2.49-0.782 3.374-0.472 0.877-1.096 1.555-1.874 2.034-0.778 0.479-1.64 0.802-2.586 0.968v0l4.628 9.612c0.043 0.095 0.074 0.179 0.091 0.253 0.024 0.081 0.034 0.155 0.032 0.222v0c-0.009 0.247-0.104 0.48-0.285 0.7-0.174 0.214-0.391 0.386-0.649 0.517-0.265 0.124-0.53 0.181-0.797 0.171zM21.575-0.148l-0.315 8.764 4.327 0.156c1.392 0.05 2.527-0.246 3.404-0.889 0.87-0.643 1.334-1.757 1.391-3.342v0c0.057-1.592-0.326-2.733-1.148-3.423-0.829-0.69-1.94-1.06-3.332-1.111v0zM41.136 17.738v0c-1.229 0.597-2.437 0.918-3.624 0.961-1.187 0.043-2.302-0.275-3.344-0.955-1.042-0.68-1.953-1.823-2.734-3.429v0l-4.424-9.102c-0.784-1.613-1.121-3.039-1.012-4.278 0.112-1.233 0.552-2.303 1.32-3.21 0.765-0.913 1.761-1.668 2.99-2.265v0c1.229-0.597 2.442-0.916 3.638-0.957 1.199-0.049 2.318 0.263 3.358 0.937 1.042 0.68 1.955 1.826 2.738 3.439v0l4.424 9.102c0.781 1.607 1.117 3.03 1.008 4.269-0.109 1.239-0.554 2.315-1.334 3.227-0.774 0.91-1.775 1.663-3.004 2.261zM40.022 15.444v0c1.247-0.606 2.055-1.429 2.425-2.468 0.363-1.036 0.188-2.289-0.526-3.758v0l-4.424-9.102c-0.714-1.469-1.591-2.381-2.63-2.735-1.046-0.352-2.192-0.224-3.44 0.381v0c-1.253 0.609-2.058 1.43-2.415 2.464-0.357 1.034-0.179 2.285 0.534 3.754v0l4.424 9.102c0.714 1.469 1.588 2.382 2.621 2.74 1.034 0.357 2.177 0.232 3.431-0.378z" opacity="1" transform="matrix(1,0,0,1,0,0)" fill="#ffffff" class="wordmark-text-0" data-fill-palette-color="quaternary" id="text-0"></path></svg></g></svg></g></svg></g></svg></g><g></g></svg></g></svg></g></svg></g><defs></defs></svg><rect width="333.90454557049503" height="333.90454557049503" fill="none" stroke="none" visibility="hidden"></rect></g></svg></g></svg>