<?xml version="1.0" standalone="no"?>
<!DOCTYPE svg PUBLIC "-//W3C//DTD SVG 20010904//EN"
 "http://www.w3.org/TR/2001/REC-SVG-20010904/DTD/svg10.dtd">
<svg version="1.0" xmlns="http://www.w3.org/2000/svg"
 width="243.000000pt" height="219.000000pt" viewBox="0 0 243.000000 219.000000"
 preserveAspectRatio="xMidYMid meet">

<g transform="translate(0.000000,219.000000) scale(0.100000,-0.100000)"
fill="white" stroke="none">
<path d="M1055 2090 c-444 -70 -754 -373 -831 -815 -20 -111 -14 -331 11 -450
62 -295 244 -530 510 -661 123 -60 245 -93 396 -106 108 -10 142 -9 237 6 462
71 777 379 842 825 16 105 7 338 -15 441 -42 191 -126 344 -264 480 -137 136
-270 209 -471 261 -88 23 -322 33 -415 19z m230 -75 c306 -78 574 -395 678
-800 68 -269 70 -471 4 -665 -71 -209 -217 -348 -427 -406 -48 -14 -99 -18
-200 -18 -120 0 -144 4 -214 28 -329 113 -583 447 -667 878 -29 145 -31 368
-6 472 72 292 239 464 507 522 79 17 239 12 325 -11z"/>
<path d="M750 1746 c0 -3 13 -18 29 -34 20 -19 31 -43 36 -73 3 -24 5 -280 3
-569 -3 -555 -5 -571 -50 -585 -10 -4 -18 -13 -18 -21 0 -11 26 -14 150 -14
83 0 150 3 150 7 0 3 -14 18 -31 32 -43 37 -48 74 -49 380 l0 264 106 -6 c176
-10 225 -49 304 -239 149 -362 166 -396 229 -428 40 -20 129 -27 179 -14 31 9
27 24 -7 24 -63 0 -105 64 -201 306 -67 167 -84 198 -137 255 -44 47 -126 89
-174 89 -36 0 -10 18 36 24 24 4 76 23 114 42 110 55 170 138 179 251 13 163
-77 261 -272 298 -56 11 -147 15 -327 15 -137 0 -249 -2 -249 -4z m501 -45
c124 -47 192 -146 193 -276 0 -55 -6 -82 -26 -126 -49 -107 -144 -149 -334
-149 l-114 0 0 291 0 292 113 -5 c80 -4 128 -12 168 -27z"/>
</g>
</svg>
