<svg xmlns="http://www.w3.org/2000/svg" version="1.1" xmlns:xlink="http://www.w3.org/1999/xlink" xmlns:svgjs="http://svgjs.dev/svgjs" width="300" height="300" viewBox="300 340 400 247"><rect width="1000" height="1000" fill="#8b3c7f"></rect><g transform="matrix(0.7,0,0,0.7,149.57575757575756,282.1265587044535)"><svg viewBox="0 0 400 300" data-background-color="#8b3c7f" preserveAspectRatio="xMidYMid meet" height="623" width="1000" xmlns="http://www.w3.org/2000/svg" xmlns:xlink="http://www.w3.org/1999/xlink"><g id="tight-bounds" transform="matrix(1,0,0,1,0.2400000000000091,-0.09999999999999432)"><svg viewBox="0 0 395.52 247.2" height="247.2" width="395.52"><g><svg></svg></g><g><svg viewBox="0 0 395.52 247.2" height="247.2" width="395.52"><g transform="matrix(1,0,0,1,75.54432,47.29158479999998)"><svg viewBox="0 0 244.43135999999998 152.61683040000003" height="152.61683040000003" width="244.43135999999998"><g><svg viewBox="0 0 244.43135999999998 152.61683040000003" height="152.61683040000003" width="244.43135999999998"><g><svg viewBox="0 0 244.43135999999998 152.61683040000003" height="152.61683040000003" width="244.43135999999998"><g id="textblocktransform"><svg viewBox="0 0 244.43135999999998 152.61683040000003" height="152.61683040000003" width="244.43135999999998" id="textblock"><g><svg viewBox="0 0 244.43135999999998 152.61683040000003" height="152.61683040000003" width="244.43135999999998"><g transform="matrix(1,0,0,1,77.25051512540114,31.34325032540115)"><svg viewBox="0 0 89.93032974919772 89.93032974919772" height="89.93032974919772" width="89.93032974919772"><g><circle r="45" cx="44.96516487459886" cy="44.96516487459886" fill="#ffffff" data-fill-palette-color="accent"></circle></g></svg></g><path d="M52.16 101.234L51.7 99.781 63.143 96.153 65.235 102.75 64.011 103.138 62.38 97.994 58.508 99.222 59.89 103.581 58.667 103.969 57.285 99.61ZM55.669 110.219L55.008 108.845 65.827 103.643 67.453 107.023C67.716 107.571 67.907 108.107 68.025 108.629 68.145 109.142 68.166 109.625 68.088 110.079 68.009 110.532 67.821 110.945 67.526 111.317 67.23 111.689 66.802 112.01 66.241 112.28V112.28C65.398 112.685 64.617 112.79 63.899 112.593 63.182 112.397 62.55 111.97 62.004 111.313V111.313L58.607 116.329 57.864 114.783 61.176 109.985 60.233 108.024ZM65.376 105.551L61.354 107.485 62.223 109.293C62.632 110.142 63.12 110.709 63.686 110.993 64.244 111.274 64.876 111.245 65.581 110.906V110.906C66.298 110.561 66.691 110.097 66.759 109.515 66.825 108.927 66.654 108.208 66.245 107.359V107.359ZM62.635 122.395V122.395C62.2 121.778 61.922 121.127 61.8 120.444 61.679 119.76 61.709 119.077 61.89 118.394 62.075 117.715 62.412 117.049 62.9 116.395 63.391 115.746 64.031 115.145 64.818 114.591V114.591C65.606 114.036 66.382 113.641 67.148 113.405 67.917 113.174 68.647 113.089 69.337 113.151 70.036 113.215 70.681 113.423 71.273 113.776 71.864 114.128 72.377 114.613 72.812 115.231V115.231C73.247 115.849 73.528 116.497 73.654 117.177 73.781 117.856 73.759 118.534 73.589 119.21 73.414 119.889 73.087 120.552 72.61 121.199 72.129 121.84 71.501 122.434 70.724 122.98V122.98C69.937 123.534 69.155 123.934 68.378 124.178 67.598 124.417 66.855 124.506 66.151 124.446 65.446 124.386 64.793 124.184 64.191 123.839 63.588 123.494 63.07 123.013 62.635 122.395ZM63.725 121.628V121.628C64.033 122.065 64.408 122.394 64.849 122.615 65.287 122.83 65.771 122.943 66.302 122.953 66.835 122.955 67.397 122.853 67.989 122.649 68.587 122.441 69.194 122.119 69.812 121.685V121.685C70.419 121.257 70.916 120.801 71.302 120.317 71.694 119.828 71.971 119.339 72.133 118.849 72.291 118.353 72.34 117.865 72.28 117.384 72.21 116.902 72.021 116.442 71.713 116.004V116.004C71.401 115.562 71.032 115.229 70.605 115.006 70.169 114.781 69.691 114.66 69.171 114.642 68.655 114.629 68.101 114.724 67.509 114.929 66.926 115.134 66.332 115.451 65.725 115.878V115.878C65.107 116.313 64.597 116.774 64.196 117.261 63.804 117.75 63.519 118.245 63.341 118.746 63.172 119.25 63.116 119.746 63.175 120.236 63.23 120.721 63.414 121.185 63.725 121.628ZM69.069 129.884L68.056 128.854 76.613 120.434 77.717 121.557 75.38 129.935 74.522 132.609 74.571 132.659C74.982 132.208 75.404 131.736 75.838 131.243 76.272 130.76 76.716 130.295 77.168 129.85V129.85L81.593 125.495 82.606 126.525 74.049 134.945 72.945 133.823 75.275 125.423 76.133 122.764 76.077 122.706C75.676 123.176 75.268 123.643 74.853 124.108 74.433 124.577 73.997 125.035 73.544 125.48V125.48ZM80.603 139.706L79.345 138.809 85.571 130.081 82.624 127.978 83.369 126.933 90.522 132.035 89.776 133.08 86.829 130.978ZM92.208 146.458L85.942 143.118 91.589 132.524 97.696 135.78 97.092 136.913 92.331 134.374 90.557 137.702 94.575 139.844 93.966 140.986 89.948 138.844 87.9 142.685 92.821 145.308ZM96.599 148.016L95.237 147.535 99.232 136.215 100.717 136.739 102.293 145.293 102.695 148.072 102.761 148.095C102.932 147.51 103.104 146.901 103.278 146.268 103.456 145.643 103.651 145.031 103.862 144.432V144.432L105.928 138.578 107.29 139.058 103.295 150.379 101.81 149.855 100.219 141.285 99.823 138.518 99.747 138.492C99.593 139.089 99.431 139.688 99.262 140.288 99.091 140.894 98.9 141.497 98.688 142.095V142.095ZM110.328 151.628L107.292 151.119 109.279 139.279 112.236 139.776C114.069 140.083 115.375 140.824 116.154 141.999 116.935 143.167 117.167 144.694 116.85 146.58V146.58C116.693 147.517 116.43 148.337 116.061 149.041 115.7 149.74 115.242 150.304 114.689 150.733 114.134 151.169 113.492 151.464 112.76 151.62 112.029 151.775 111.219 151.778 110.328 151.628ZM110.576 140.758L109.001 150.145 110.346 150.37C111.731 150.603 112.839 150.362 113.671 149.647 114.503 148.932 115.045 147.823 115.297 146.32V146.32C115.55 144.816 115.396 143.611 114.836 142.703 114.278 141.789 113.306 141.216 111.922 140.984V140.984ZM126.119 152.463L123.044 152.617 122.444 140.627 125.439 140.477C127.295 140.384 128.73 140.827 129.743 141.808 130.756 142.781 131.31 144.223 131.406 146.133V146.133C131.453 147.081 131.372 147.939 131.163 148.706 130.96 149.466 130.634 150.115 130.186 150.652 129.738 151.197 129.173 151.624 128.493 151.932 127.812 152.241 127.021 152.418 126.119 152.463ZM124.028 141.793L124.504 151.299 125.867 151.23C127.269 151.16 128.3 150.687 128.959 149.81 129.618 148.934 129.909 147.734 129.833 146.212V146.212C129.757 144.689 129.348 143.545 128.607 142.778 127.865 142.006 126.793 141.654 125.391 141.724V141.724ZM141.851 150.089L134.895 151.513 132.487 139.751 139.267 138.364 139.525 139.621 134.238 140.703 134.995 144.398 139.455 143.485 139.715 144.752 135.254 145.665 136.127 149.93 141.59 148.811ZM148.613 147.571L146.951 148.194 139.138 138.303 140.659 137.733 144.738 143.122C145.198 143.721 145.61 144.277 145.974 144.79 146.344 145.301 146.763 145.847 147.231 146.429V146.429L147.297 146.404C147.255 145.663 147.205 144.978 147.148 144.35 147.097 143.719 147.042 143.029 146.982 142.281V142.281L146.5 135.542 147.955 134.996ZM160.418 141.989L154.117 145.261 148.584 134.607 154.726 131.418 155.318 132.557 150.529 135.044 152.267 138.391 156.308 136.292 156.904 137.44 152.863 139.539 154.869 143.402 159.818 140.832ZM168.512 136.243L162.987 140.155 156.049 130.358 157.293 129.477 163.478 138.21 167.758 135.179ZM173.498 131.7V131.7C172.952 132.223 172.351 132.596 171.693 132.818 171.036 133.04 170.356 133.113 169.653 133.037 168.955 132.955 168.245 132.723 167.525 132.338 166.81 131.949 166.12 131.407 165.454 130.712V130.712C164.788 130.017 164.28 129.308 163.932 128.587 163.588 127.86 163.395 127.152 163.353 126.46 163.312 125.759 163.42 125.09 163.68 124.453 163.94 123.815 164.342 123.235 164.888 122.712V122.712C165.433 122.19 166.033 121.815 166.685 121.588 167.338 121.361 168.011 121.28 168.705 121.347 169.403 121.419 170.108 121.642 170.819 122.017 171.525 122.396 172.206 122.929 172.863 123.614V123.614C173.529 124.31 174.041 125.023 174.399 125.754 174.752 126.49 174.951 127.211 174.998 127.916 175.044 128.622 174.942 129.298 174.692 129.946 174.441 130.593 174.043 131.178 173.498 131.7ZM172.575 130.737V130.737C172.961 130.367 173.23 129.947 173.382 129.478 173.529 129.013 173.568 128.517 173.499 127.991 173.421 127.464 173.236 126.923 172.945 126.369 172.65 125.809 172.241 125.256 171.718 124.711V124.711C171.205 124.175 170.68 123.752 170.143 123.443 169.601 123.128 169.075 122.928 168.567 122.841 168.053 122.759 167.563 122.784 167.097 122.916 166.63 123.057 166.204 123.313 165.818 123.683V123.683C165.426 124.058 165.153 124.473 164.996 124.928 164.84 125.393 164.791 125.883 164.851 126.4 164.916 126.912 165.094 127.446 165.384 128.001 165.675 128.546 166.077 129.087 166.591 129.623V129.623C167.113 130.168 167.646 130.603 168.187 130.927 168.729 131.241 169.261 131.449 169.784 131.55 170.307 131.641 170.806 131.621 171.282 131.49 171.753 131.363 172.184 131.112 172.575 130.737ZM179.984 124.176L179.065 125.392 169.488 118.152 171.551 115.424C171.958 114.885 172.38 114.433 172.816 114.067 173.247 113.696 173.688 113.439 174.141 113.295 174.593 113.151 175.065 113.127 175.555 113.221 176.051 113.319 176.56 113.566 177.083 113.961V113.961C177.59 114.344 177.965 114.762 178.209 115.215 178.448 115.664 178.571 116.134 178.577 116.624 178.584 117.125 178.486 117.637 178.282 118.162 178.078 118.686 177.779 119.21 177.383 119.733V119.733L176.192 121.309ZM171.392 117.68L175.2 120.559 176.277 119.135C176.91 118.297 177.219 117.555 177.206 116.908 177.198 116.265 176.852 115.685 176.17 115.169V115.169C175.482 114.649 174.843 114.501 174.254 114.726 173.669 114.946 173.059 115.474 172.426 116.312V116.312ZM188.731 110.143L185.307 116.364 174.79 110.575 178.127 104.513 179.252 105.132 176.65 109.859 179.953 111.677 182.149 107.688 183.282 108.312 181.087 112.301 184.9 114.4 187.589 109.515ZM190.378 105.708L189.849 107.138 178.59 102.97 179.893 99.453C180.104 98.882 180.356 98.373 180.65 97.926 180.936 97.482 181.269 97.132 181.649 96.873 182.03 96.615 182.457 96.463 182.931 96.417 183.404 96.371 183.932 96.456 184.515 96.672V96.672C185.393 96.997 186.011 97.486 186.368 98.139 186.725 98.791 186.857 99.543 186.764 100.392V100.392L192.732 99.35 192.136 100.959 186.384 101.909 185.628 103.95ZM180.277 101.969L184.462 103.518 185.158 101.637C185.486 100.753 185.554 100.009 185.365 99.404 185.179 98.807 184.72 98.373 183.986 98.102V98.102C183.24 97.826 182.633 97.865 182.167 98.22 181.698 98.581 181.3 99.204 180.973 100.088V100.088Z" fill="#ffffff" data-fill-palette-color="primary"></path><path d="M64.477 54.34L57.745 54.939 56.884 57.496 62.747 59.472 62.132 61.297 47.629 56.408 48.997 52.35C49.478 50.924 50.212 49.972 51.199 49.494 52.186 49.015 53.392 49.016 54.817 49.496V49.496C55.711 49.797 56.427 50.258 56.966 50.877 57.497 51.5 57.812 52.231 57.91 53.068V53.068L65.017 52.331 65.141 52.373ZM49.813 55.112L55.315 56.967 56.062 54.753C56.32 53.986 56.278 53.294 55.936 52.678 55.602 52.057 55.023 51.608 54.199 51.331V51.331C52.336 50.703 51.121 51.231 50.553 52.917V52.917ZM85.044 17.297L86.007 18.644 81.601 21.793 84.751 26.199 89.883 22.53 90.845 23.877 84.155 28.659 75.254 16.209 81.863 11.484 82.825 12.831 77.775 16.441 80.639 20.447ZM122.118 0L122.783 15.29 120.86 15.374 120.194 0.084ZM160.055 27.498L160.179 19.25 157.939 19.987 155.155 24.42 153.533 23.401 161.673 10.441 163.295 11.46 159.364 17.719 161.325 16.973 167.856 14.324 169.818 15.557 162.021 18.618 162 28.72ZM192.308 58.181L189.713 59.201C187.771 59.964 186.112 60.138 184.735 59.724 183.358 59.31 182.37 58.341 181.771 56.816V56.816C181.194 55.348 181.248 53.986 181.933 52.733 182.618 51.479 183.888 50.47 185.743 49.705V49.705L188.422 48.652C190.326 47.903 191.985 47.736 193.398 48.151 194.804 48.568 195.805 49.532 196.399 51.044V51.044C196.989 52.544 196.931 53.914 196.226 55.154 195.523 56.4 194.217 57.409 192.308 58.181ZM188.831 57.478L191.501 56.429C193.007 55.837 194.03 55.151 194.571 54.371 195.112 53.59 195.183 52.693 194.785 51.679V51.679C194.396 50.69 193.732 50.088 192.793 49.875 191.848 49.665 190.65 49.841 189.197 50.405V50.405L186.649 51.407C185.193 51.979 184.185 52.667 183.623 53.469 183.056 54.274 182.971 55.181 183.367 56.189 183.761 57.191 184.405 57.796 185.299 58.005 186.19 58.208 187.368 58.032 188.831 57.478Z" fill="#ffffff" data-fill-palette-color="primary"></path><path d="M51.557 78.959C51.557 77.977 52.353 77.181 53.335 77.181 54.317 77.181 55.114 77.977 55.114 78.959 55.114 79.941 54.317 80.737 53.335 80.737 52.353 80.737 51.557 79.941 51.557 78.959ZM189.318 78.959C189.318 77.977 190.114 77.181 191.096 77.181 192.078 77.181 192.874 77.977 192.874 78.959 192.874 79.941 192.078 80.737 191.096 80.737 190.114 80.737 189.318 79.941 189.318 78.959Z" fill="#ffffff" data-fill-palette-color="primary"></path></svg></g></svg></g></svg></g><g></g></svg></g></svg></g><g><path d="M103.534 45.765A122.216 122.216 0 0 1 291.986 45.765L291.403 45.765A121.633 121.633 0 0 0 104.117 45.765L103.534 45.765M103.534 201.435A122.216 122.216 0 0 0 291.986 201.435L291.403 201.435A121.633 121.633 0 0 1 104.117 201.435L103.534 201.435" fill="#ffffff" stroke="transparent" data-fill-palette-color="tertiary"></path></g></svg></g><defs></defs></svg><rect width="395.52" height="247.2" fill="none" stroke="none" visibility="hidden"></rect></g></svg></g></svg>